# This file uses centimeters as units for non-parametric coordinates.

mtllib chairShip.mtl
g default
v 5.258887 0.007043 -4.284628
v 6.023798 0.007043 -4.284628
v 5.358289 0.369410 -4.470344
v 5.924396 0.369410 -4.470344
v 5.358289 0.369410 -5.026194
v 5.924396 0.369410 -5.026194
v 5.258887 0.007043 -5.211910
v 6.023798 0.007043 -5.211910
v 5.282760 1.033913 -4.556980
v 5.715342 1.087707 -4.556980
v 5.715342 1.087707 -4.939558
v 5.282760 1.033913 -4.939558
v 5.282760 1.033913 -4.556980
v 5.715342 1.087707 -4.556980
v 5.715342 1.087707 -4.939558
v 5.282760 1.033913 -4.939558
v 4.878635 0.904804 -3.949997
v 6.100450 1.103472 -3.893543
v 5.102847 1.244987 -4.041917
v 5.979989 1.296650 -4.041917
v 5.102847 1.244987 -5.454621
v 5.979989 1.296650 -5.454621
v 4.877789 0.925215 -5.609782
v 6.115904 1.123076 -5.638779
v 6.456245 1.703560 -5.597682
v 6.492695 1.701755 -3.875484
v 6.218635 1.729037 -5.454621
v 6.218635 1.729037 -4.041917
v 6.266071 2.752022 -5.599491
v 6.318821 2.749410 -3.931939
v 6.199525 2.817805 -5.485427
v 6.199525 2.817805 -4.041917
vt 0.375000 0.000000
vt 0.625000 0.000000
vt 0.625000 0.250000
vt 0.375000 0.250000
vt 0.375000 0.250000
vt 0.625000 0.250000
vt 0.625000 0.500000
vt 0.375000 0.500000
vt 0.375000 0.500000
vt 0.625000 0.500000
vt 0.625000 0.750000
vt 0.375000 0.750000
vt 0.625000 1.000000
vt 0.375000 1.000000
vt 0.875000 0.000000
vt 0.875000 0.250000
vt 0.125000 0.000000
vt 0.125000 0.250000
vt 0.625000 0.250000
vt 0.375000 0.250000
vt 0.625000 0.500000
vt 0.375000 0.500000
vt 0.375000 0.000000
vt 0.625000 0.000000
vt 0.625000 0.250000
vt 0.375000 0.250000
vt 0.625000 0.500000
vt 0.375000 0.500000
vt 0.625000 0.750000
vt 0.375000 0.750000
vt 0.625000 1.000000
vt 0.375000 1.000000
vt 0.625000 0.000000
vt 0.875000 0.000000
vt 0.875000 0.250000
vt 0.625000 0.250000
vt 0.125000 0.000000
vt 0.125000 0.250000
vt 0.875000 0.000000
vt 0.875000 0.000000
vt 0.625000 0.000000
vt 0.875000 0.250000
vt 0.875000 0.250000
vt 0.625000 0.250000
vn 0.000000 0.456097 0.889930
vn 0.000000 0.456097 0.889930
vn -0.003232 0.300656 0.953727
vn -0.003679 0.278151 0.960530
vn -0.123404 0.992357 0.000000
vn -0.123404 0.992357 0.000000
vn -0.123404 0.992357 0.000000
vn -0.123404 0.992357 0.000000
vn -0.003679 0.278151 -0.960530
vn -0.003232 0.300656 -0.953727
vn 0.000000 0.456097 -0.889930
vn 0.000000 0.456097 -0.889930
vn 0.000000 -1.000000 0.000000
vn 0.000000 -1.000000 0.000000
vn 0.000000 -1.000000 0.000000
vn 0.000000 -1.000000 0.000000
vn 0.964374 0.264541 0.000000
vn 0.964374 0.264541 0.000000
vn 0.962404 0.271623 0.000000
vn 0.962404 0.271623 0.000000
vn -0.964375 0.264540 0.000000
vn -0.964375 0.264540 0.000000
vn -0.995134 0.098530 0.000000
vn -0.995134 0.098530 0.000000
vn -0.003679 0.278151 0.960530
vn -0.003232 0.300656 0.953727
vn -0.006625 0.122988 0.992386
vn -0.006625 0.122988 0.992386
vn 0.962404 0.271623 0.000000
vn 0.962404 0.271623 0.000000
vn 0.960162 0.279446 0.000000
vn 0.960162 0.279446 0.000000
vn -0.003232 0.300656 -0.953727
vn -0.003679 0.278151 -0.960530
vn -0.006625 0.122988 -0.992386
vn -0.006625 0.122988 -0.992386
vn -0.995134 0.098530 0.000000
vn -0.995134 0.098530 0.000000
vn -0.993602 -0.112936 0.000000
vn -0.993602 -0.112936 0.000000
vn 0.000000 0.000000 0.000000
vn 0.000000 0.000000 0.000000
vn 0.000000 0.000000 0.000000
vn 0.000000 0.000000 0.000000
vn 0.000000 0.000000 0.000000
vn 0.000000 0.000000 0.000000
vn 0.000000 0.000000 0.000000
vn 0.000000 0.000000 0.000000
vn 0.000000 0.000000 0.000000
vn 0.000000 0.000000 0.000000
vn 0.000000 0.000000 0.000000
vn 0.000000 0.000000 0.000000
vn 0.000000 0.000000 0.000000
vn 0.000000 0.000000 0.000000
vn 0.000000 0.000000 0.000000
vn 0.000000 0.000000 0.000000
vn -0.074593 0.421647 0.903687
vn -0.229509 0.382849 0.894848
vn -0.229010 0.382992 0.894914
vn -0.074593 0.421647 0.903687
vn -0.058797 0.998270 0.000000
vn -0.058797 0.998270 0.000000
vn -0.058797 0.998270 0.000000
vn -0.058797 0.998270 0.000000
vn -0.078946 0.574568 -0.814641
vn -0.223775 0.510841 -0.830040
vn -0.237459 0.504005 -0.830417
vn -0.078946 0.574568 -0.814641
vn 0.159250 -0.987178 -0.010918
vn 0.159250 -0.987178 -0.010918
vn 0.159250 -0.987178 -0.010918
vn 0.159250 -0.987178 -0.010918
vn 0.585211 0.810829 -0.009242
vn 0.585211 0.810829 -0.009242
vn 0.585211 0.810828 -0.009242
vn 0.585211 0.810829 -0.009242
vn -0.826806 0.562474 0.003964
vn -0.826806 0.562474 0.003964
vn -0.826806 0.562474 0.003964
vn -0.826806 0.562474 0.003964
vn 0.849496 -0.527528 -0.008401
vn 0.849496 -0.527528 -0.008401
vn 0.992151 -0.123457 -0.019864
vn 0.992719 -0.118789 -0.019972
vn -0.237459 0.504005 -0.830417
vn -0.223775 0.510841 -0.830040
vn -0.606807 0.112629 -0.786829
vn -0.613521 0.092016 -0.784299
vn -0.875503 0.483213 0.000000
vn -0.875503 0.483213 0.000000
vn -0.989920 0.141626 0.000000
vn -0.990203 0.139637 0.000000
vn -0.229010 0.382992 0.894914
vn -0.229509 0.382849 0.894848
vn -0.555415 0.086586 0.827053
vn -0.550148 0.107752 0.828086
vn 0.992719 -0.118789 -0.019972
vn 0.992151 -0.123457 -0.019864
vn 0.985046 0.170365 -0.025699
vn 0.985046 0.170365 -0.025699
vn -0.613521 0.092016 -0.784299
vn -0.606807 0.112629 -0.786829
vn -0.656899 -0.075773 -0.750162
vn -0.656899 -0.075773 -0.750162
vn -0.990203 0.139637 0.000000
vn -0.989920 0.141626 0.000000
vn -0.999846 -0.017549 0.000000
vn -0.999846 -0.017549 0.000000
vn -0.550148 0.107752 0.828086
vn -0.555415 0.086586 0.827053
vn -0.579684 -0.030847 0.814258
vn -0.579684 -0.030847 0.814258
s off
g intr_chair:pCube12
usemtl intr_chair:lambert6SG
f 1/1/1 2/2/2 4/3/3 3/4/4
f 13/5/5 14/6/6 15/7/7 16/8/8
f 5/9/9 6/10/10 8/11/11 7/12/12
f 7/12/13 8/11/14 2/13/15 1/14/16
f 2/2/17 8/15/18 6/16/19 4/3/20
f 7/17/21 1/1/22 3/4/23 5/18/24
f 3/4/25 4/3/26 10/19/27 9/20/28
f 4/3/29 6/10/30 11/21/31 10/19/32
f 6/10/33 5/9/34 12/22/35 11/21/36
f 5/9/37 3/4/38 9/20/39 12/22/40
f 9/20/41 10/19/42 14/6/43 13/5/44
f 10/19/45 11/21/46 15/7/47 14/6/48
f 11/21/49 12/22/50 16/8/51 15/7/52
f 12/22/53 9/20/54 13/5/55 16/8/56
f 17/23/57 18/24/58 20/25/59 19/26/60
f 19/26/61 20/25/62 22/27/63 21/28/64
f 21/28/65 22/27/66 24/29/67 23/30/68
f 23/30/69 24/29/70 18/31/71 17/32/72
f 30/33/73 29/34/74 31/35/75 32/36/76
f 23/37/77 17/23/78 19/26/79 21/38/80
f 18/24/81 24/39/82 25/40/83 26/41/84
f 24/39/85 22/42/86 27/43/87 25/40/88
f 22/42/89 20/25/90 28/44/91 27/43/92
f 20/25/93 18/24/94 26/41/95 28/44/96
f 26/41/97 25/40/98 29/34/99 30/33/100
f 25/40/101 27/43/102 31/35/103 29/34/104
f 27/43/105 28/44/106 32/36/107 31/35/108
f 28/44/109 26/41/110 30/33/111 32/36/112
