# This file uses centimeters as units for non-parametric coordinates.

mtllib Flag.mtl
g default
v -3.238271 4.855047 0.003080
v -0.098755 4.855047 0.003080
v -3.238271 6.797803 0.003080
v -0.098755 6.797803 0.003080
v -3.238271 6.797803 -0.003080
v -0.098755 6.797803 -0.003080
v -3.238271 4.855047 -0.003080
v -0.098755 4.855047 -0.003080
vt 0.047616 0.020301
vt 0.874727 0.020301
vt 0.874727 0.463234
vt 0.047616 0.463234
vt 0.877458 0.514001
vt 0.040569 0.514001
vt 0.877458 0.960180
vt 0.040569 0.960180
vt 0.625000 0.987980
vt 0.375000 0.987980
vt 0.922066 0.000000
vt 0.922066 0.250000
vt 0.006562 0.000000
vt 0.006562 0.250000
vn 0.000000 0.000000 1.000000
vn 0.000000 0.000000 1.000000
vn 0.000000 0.000000 1.000000
vn 0.000000 0.000000 1.000000
vn 0.000000 1.000000 0.000000
vn 0.000000 1.000000 0.000000
vn 0.000000 1.000000 0.000000
vn 0.000000 1.000000 0.000000
vn 0.000000 0.000000 -1.000000
vn 0.000000 0.000000 -1.000000
vn 0.000000 0.000000 -1.000000
vn 0.000000 0.000000 -1.000000
vn 0.000000 -1.000000 0.000000
vn 0.000000 -1.000000 0.000000
vn 0.000000 -1.000000 0.000000
vn 0.000000 -1.000000 0.000000
vn 1.000000 0.000000 0.000000
vn 1.000000 0.000000 0.000000
vn 1.000000 0.000000 0.000000
vn 1.000000 0.000000 0.000000
vn -1.000000 0.000000 0.000000
vn -1.000000 0.000000 0.000000
vn -1.000000 0.000000 0.000000
vn -1.000000 0.000000 0.000000
s off
g polySurface71 pCylinder15
usemtl lambert7SG
f 1/1/1 2/2/2 4/3/3 3/4/4
f 3/4/5 4/3/6 6/5/7 5/6/8
f 5/6/9 6/5/10 8/7/11 7/8/12
f 7/8/13 8/7/14 2/9/15 1/10/16
f 2/2/17 8/11/18 6/12/19 4/3/20
f 7/13/21 1/1/22 3/4/23 5/14/24
