# This file uses centimeters as units for non-parametric coordinates.

mtllib Maze_Wall.mtl
g default
v -1.994696 0.728467 0.500000
v 1.994696 0.602046 0.384871
v -1.792182 3.825087 0.564001
v 1.760607 3.825087 0.671567
v -1.885540 3.825087 -0.500000
v 1.792182 3.825087 -0.564001
v -1.994696 0.646767 -0.500000
v 1.994696 0.585580 -0.279570
v -1.866564 1.472683 -0.500000
v -2.158203 1.472683 0.500000
v 1.947548 1.472683 0.434497
v 1.994696 1.472683 -0.437722
v -1.994696 2.692697 -0.500000
v -1.883274 2.692697 0.500000
v 1.994696 2.692697 0.562278
v 1.947548 2.692697 -0.565503
v -0.977491 1.472683 -0.435643
v -0.977491 2.692697 -0.566133
v -0.977491 3.825087 -0.574538
v -0.977491 3.825087 0.500000
v -0.977491 2.692697 0.650549
v -0.905450 1.472683 0.466735
v -0.977491 0.577637 0.453426
v -0.977491 0.728467 -0.452082
v 0.627566 1.472683 -0.545670
v 0.627566 2.692697 -0.435643
v 0.627566 3.825087 -0.500000
v 0.627566 3.825087 0.574538
v 0.699607 2.692697 0.466735
v 0.627566 1.472683 0.650549
v 0.627566 0.646767 0.547918
v 0.627566 0.646767 -0.546574
v -2.243279 1.472683 0.009465
v -2.173036 2.692697 0.009465
v -2.208649 3.875097 0.009465
v -0.977491 4.019618 0.009465
v 0.627566 3.959872 0.009465
v 2.208649 3.875097 0.009465
v 2.157147 2.692697 0.009465
v 2.129014 1.472683 0.009465
v 2.122953 0.480758 0.009465
v 0.627566 0.546660 0.103994
v -0.944826 0.444853 0.065811
v -2.103972 0.577637 0.009465
vt 0.375000 0.000000
vt 0.625000 0.000000
vt 0.375000 0.250000
vt 0.625000 0.250000
vt 0.375000 0.500000
vt 0.625000 0.500000
vt 0.375000 0.750000
vt 0.625000 0.750000
vt 0.375000 1.000000
vt 0.625000 1.000000
vt 0.875000 0.000000
vt 0.875000 0.250000
vt 0.125000 0.000000
vt 0.125000 0.250000
vt 0.125000 0.064965
vt 0.375000 0.685035
vt 0.375000 0.064965
vt 0.625000 0.064965
vt 0.625000 0.685035
vt 0.875000 0.064965
vt 0.125000 0.160929
vt 0.375000 0.589071
vt 0.375000 0.160929
vt 0.625000 0.160929
vt 0.625000 0.589071
vt 0.875000 0.160929
vt 0.438744 0.685035
vt 0.438744 0.589071
vt 0.438744 0.500000
vt 0.438744 0.250000
vt 0.438744 0.160929
vt 0.438744 0.064965
vt 0.438744 0.000000
vt 0.438744 1.000000
vt 0.438744 0.750000
vt 0.539327 0.685035
vt 0.539327 0.589071
vt 0.539327 0.500000
vt 0.539327 0.250000
vt 0.539327 0.160929
vt 0.539327 0.064965
vt 0.539327 0.000000
vt 0.539327 1.000000
vt 0.539327 0.750000
vt 0.252366 0.064965
vt 0.252366 0.160929
vt 0.252366 0.250000
vt 0.375000 0.372634
vt 0.438744 0.372634
vt 0.539327 0.372634
vt 0.625000 0.372634
vt 0.747634 0.250000
vt 0.747634 0.160929
vt 0.747634 0.064965
vt 0.625000 0.877366
vt 0.747634 0.000000
vt 0.539327 0.877366
vt 0.438744 0.877366
vt 0.252366 0.000000
vt 0.375000 0.877366
vn 0.002999 -0.012651 0.999915
vn -0.013004 -0.039245 0.999145
vn -0.078618 -0.105647 0.991291
vn -0.015490 -0.034862 0.999272
vn 0.022171 0.999754 -0.000242
vn 0.026044 0.999661 0.000218
vn 0.026224 0.983691 -0.177945
vn 0.025337 0.970919 -0.238063
vn 0.001836 -0.032538 -0.999469
vn -0.077746 -0.032988 -0.996427
vn -0.040213 -0.019208 -0.999006
vn 0.000941 -0.019713 -0.999805
vn -0.009556 -0.960135 -0.279375
vn -0.030804 -0.977435 -0.208976
vn -0.024937 -0.999307 -0.027640
vn 0.000910 -0.999945 -0.010498
vn 0.999912 0.012920 -0.003142
vn 0.909231 0.019786 -0.415822
vn 0.876592 0.039644 -0.479599
vn 0.998725 0.050221 -0.005180
vn -0.887251 0.002916 -0.461277
vn -0.999269 0.038047 0.003708
vn -0.994937 0.018246 0.098826
vn -0.896315 0.028477 -0.442504
vn -0.902420 -0.005860 -0.430818
vn -0.985475 -0.088886 -0.144700
vn -0.994072 -0.003367 -0.108669
vn -0.888220 -0.014760 -0.459180
vn 0.018526 -0.073833 0.997099
vn 0.137812 -0.084733 0.986827
vn 0.088841 -0.028309 0.995643
vn 0.017645 -0.025526 0.999518
vn 0.999536 -0.009888 0.028804
vn 0.939983 -0.031628 -0.339752
vn 0.946002 -0.014575 -0.323831
vn 0.999706 -0.022059 0.010094
vn 0.035475 -0.040163 -0.998563
vn 0.013245 -0.020640 -0.999699
vn 0.057432 -0.046031 -0.997288
vn 0.133311 -0.090596 -0.986925
vn -0.035876 -0.027633 -0.998974
vn 0.008080 -0.022750 -0.999709
vn -0.005071 -0.011416 -0.999922
vn 0.022656 -0.030051 -0.999292
vn -0.072871 -0.000189 -0.997341
vn 0.012591 -0.020163 -0.999717
vn -0.069466 0.997574 -0.004628
vn -0.015951 0.999872 -0.000962
vn -0.011950 0.962744 -0.270149
vn -0.073727 0.968376 -0.238351
vn -0.052711 -0.028628 0.998199
vn -0.009114 -0.002610 0.999955
vn 0.005122 0.026765 0.999629
vn -0.050200 0.040155 0.997932
vn -0.017442 -0.044015 0.998879
vn -0.030041 -0.034478 0.998954
vn 0.034740 -0.006175 0.999377
vn -0.037536 -0.040229 0.998485
vn -0.006618 -0.945630 -0.325176
vn -0.002180 -0.948436 -0.316961
vn -0.017402 -0.998479 -0.052308
vn -0.056674 -0.995772 -0.072294
vn -0.017465 0.009025 -0.999807
vn 0.058552 0.005674 -0.998268
vn -0.952499 0.009899 0.304380
vn -0.878564 0.060288 0.473805
vn -0.828447 0.004371 0.560050
vn -0.060434 0.966308 0.250194
vn -0.017869 0.960160 0.278879
vn 0.019051 0.975584 0.218800
vn 0.025190 0.987142 0.157846
vn 0.911986 0.015836 0.409916
vn 0.891644 0.049082 0.450070
vn 0.939846 -0.028282 0.340425
vn 0.933120 0.011008 0.359396
vn -0.014039 -0.965833 0.258784
vn 0.017411 -0.963841 0.265907
vn -0.029578 -0.956386 0.290606
vn -0.124045 -0.941036 0.314746
vn -0.959842 -0.177308 0.217406
s 1
g pCube2
usemtl lambert2SG
f 29/40/1 15/24/2 4/4/3 28/39/4
s 2
f 37/50/5 38/51/6 6/6/7 27/38/8
s 3
f 27/38/9 6/6/10 16/25/11 26/37/12
s 4
f 32/44/13 8/8/14 41/55/15 42/57/16
s 5
f 39/53/17 16/26/18 6/12/19 38/52/20
s 6
f 13/21/21 34/46/22 35/47/23 5/14/24
f 7/13/25 44/59/26 33/45/27 9/15/28
s 1
f 31/42/29 2/2/30 11/18/31 30/41/32
s 5
f 41/56/33 8/11/34 12/20/35 40/54/36
s 3
f 32/44/37 25/36/38 12/19/39 8/8/40
s 6
f 9/15/28 33/45/27 34/46/22 13/21/21
s 1
f 30/41/32 11/18/31 15/24/2 29/40/1
s 5
f 40/54/36 12/20/35 16/26/18 39/53/17
s 3
f 26/37/12 16/25/11 12/19/39 25/36/38
f 13/22/41 18/28/42 17/27/43 9/16/44
f 5/5/45 19/29/46 18/28/42 13/22/41
s 2
f 35/48/47 36/49/48 19/29/49 5/5/50
s 1
f 14/23/51 21/31/52 20/30/53 3/3/54
f 10/17/55 22/32/56 21/31/52 14/23/51
f 1/1/57 23/33/58 22/32/56 10/17/55
s 4
f 7/7/59 24/35/60 43/58/61 44/60/62
s 3
f 9/16/44 17/27/43 24/35/63 7/7/64
f 18/28/42 26/37/12 25/36/38 17/27/43
f 19/29/46 27/38/9 26/37/12 18/28/42
s 2
f 36/49/48 37/50/5 27/38/8 19/29/49
s 1
f 21/31/52 29/40/1 28/39/4 20/30/53
f 22/32/56 30/41/32 29/40/1 21/31/52
f 23/33/58 31/42/29 30/41/32 22/32/56
s 4
f 24/35/60 32/44/13 42/57/16 43/58/61
s 3
f 24/35/63 17/27/43 25/36/38 32/44/37
s 6
f 33/45/27 10/17/65 14/23/66 34/46/22
f 35/47/23 34/46/22 14/23/66 3/3/67
s 2
f 3/3/68 20/30/69 36/49/48 35/48/47
f 20/30/69 28/39/70 37/50/5 36/49/48
f 28/39/70 4/4/71 38/51/6 37/50/5
s 5
f 15/24/72 39/53/17 38/52/20 4/4/73
f 11/18/74 40/54/36 39/53/17 15/24/72
f 2/2/75 41/56/33 40/54/36 11/18/74
s 4
f 42/57/16 41/55/15 2/10/76 31/43/77
f 43/58/61 42/57/16 31/43/77 23/34/78
f 44/60/62 43/58/61 23/34/78 1/9/79
s 6
f 33/45/27 44/59/26 1/1/80 10/17/65
