# This file uses centimeters as units for non-parametric coordinates.

g default
v 0.128581 -0.087684 -0.079498
v 0.093419 -0.087684 -0.109420
v 0.142533 -0.045995 -0.373301
v -0.253995 -0.071888 -0.157039
v -0.151156 -0.087684 -0.041795
v -0.158934 -0.087684 0.000000
v -0.298589 -0.071888 0.082560
v -0.097017 -0.071888 0.254094
v -0.000000 -0.087684 0.135250
v 0.049113 -0.087684 0.128631
v 0.000000 -0.092993 0.000000
v -0.222000 0.033303 -0.581429
v 0.184538 -0.071888 0.216145
v 0.438671 -0.045995 -0.121293
v -0.581203 0.033303 0.359343
v -0.589826 0.270752 0.690849
v 0.279736 0.142446 0.732644
v 0.860940 0.142446 -0.238050
v 0.954359 0.270752 -0.263881
v 0.589826 0.270752 -0.690849
v -0.597178 0.338206 -0.699461
v -0.954359 0.270752 0.263881
v 0.954358 0.270752 0.263881
v 0.000000 0.405660 -0.853937
v 0.310090 0.405660 0.812142
v -0.860939 0.533966 -0.238050
v -0.253995 0.591658 0.665226
v 0.860940 0.533966 -0.238050
v 0.222000 0.643109 -0.581430
v -0.222000 0.643109 -0.581429
v -0.581203 0.643109 0.359343
v 0.222000 0.643109 0.581429
v 0.438671 0.722406 -0.121293
v -0.097017 0.748300 0.254094
v 0.184538 0.748300 0.216145
v 0.000000 0.769404 0.000000
v -0.000000 0.764095 0.135250
v 0.049113 0.764095 0.128631
vt 0.075895 0.132180
vt 0.333065 0.004372
vt 0.004372 0.502642
vt 0.645978 0.132180
vt 0.588130 0.420684
vt 0.478255 0.004372
vt 0.846861 0.420684
vt 0.283974 0.740493
vt 0.831334 0.810589
vt 0.645978 0.873103
vt 0.075895 0.873103
vt 0.428226 1.026554
vt 1.499318 0.264791
vt 1.514971 0.420684
vt 1.195161 0.420684
vt 1.773701 0.420684
vt 1.499318 0.740493
vt 1.428566 0.035833
vt 1.581276 0.035833
vt 1.707396 0.873103
vt 0.862930 0.584599
vt 0.911104 0.264791
vt 1.428566 0.969451
vt 1.002736 0.873103
vt 1.224088 0.004372
vt 1.224088 1.000912
vt 1.948361 1.380117
vt 1.930229 1.361985
vt 1.955556 1.202081
vt 2.108266 1.354791
vt 1.882056 1.428291
vt 1.767577 1.075961
vt 1.977217 1.559269
vt 1.751078 1.333130
vt 2.186212 1.009655
vt 1.907382 1.506237
vt 1.804109 1.402964
vt 1.882056 1.510249
vt 1.832026 1.582265
vt 1.800098 1.428291
vt 1.728082 1.478320
vt 2.026308 1.872252
vt 1.577899 1.846926
vt 1.582346 1.646043
vt 1.038540 1.195012
vt 1.288220 1.258790
vt 1.338249 1.412764
vt 1.207271 1.009655
vt 1.338249 1.330806
vt 1.452729 1.060434
vt 1.433411 1.281786
vt 1.363576 1.334817
vt 1.564459 1.486264
vt 1.452729 1.765094
vt 1.223770 1.765094
vt 0.894288 1.557016
vt 0.880848 1.487717
vt 0.462212 1.776221
vt 0.268743 1.405759
vt 0.576691 1.323801
vt 0.462212 1.035297
vt 0.691170 1.035297
vt 0.004372 1.940858
vt 0.452780 1.784964
vt 0.468433 2.104773
vt 0.177550 2.330763
vt 0.423007 2.393277
vn 0.119812 -0.990156 -0.072361
vn 0.061455 -0.988170 -0.140511
vn 0.127145 -0.915672 -0.381287
vn 0.340323 -0.938401 0.059862
vn -0.084416 -0.994999 -0.053396
vn -0.094358 -0.995335 0.020136
vn -0.175935 -0.970919 0.162370
vn -0.460584 -0.857750 -0.228315
vn -0.017107 -0.993707 0.110700
vn 0.045395 -0.994041 0.099103
vn 0.257892 -0.931090 0.257997
vn -0.114585 -0.923288 0.366618
vn -0.014514 -0.998413 -0.054417
vn -0.171312 -0.750284 -0.638534
vn 0.451577 -0.872746 -0.185454
vn -0.481970 -0.875421 -0.036651
vn 0.171922 -0.779826 0.601925
vn 0.469707 -0.082153 -0.878992
vn -0.582447 -0.505665 -0.636442
vn -0.440201 -0.258515 0.859880
vn 0.791785 0.309509 -0.526575
vn -0.789424 -0.611462 -0.054066
vn 0.832803 -0.128384 0.538476
vn 0.372218 0.374405 0.849279
vn 0.025927 0.034195 -0.999079
vn -0.649969 0.729436 -0.213221
vn -0.252329 0.668360 0.699732
vn 0.607848 0.759417 -0.231962
vn -0.200912 0.911567 -0.358719
vn 0.272706 0.816339 -0.509139
vn -0.430288 0.872756 0.230541
vn 0.373890 0.813703 0.445077
vn 0.304920 0.952130 -0.021725
vn -0.107913 0.973552 0.201372
vn -0.129857 0.985886 -0.105674
vn 0.207746 0.961282 0.181046
vn 0.045395 0.994041 0.099103
vn -0.017107 0.993707 0.110700
s 1
g pSphere1
f 1/27/1 2/28/2 3/29/3 14/30/4
f 5/37/5 6/40/6 7/41/7 4/34/8
f 9/38/9 10/36/10 13/33/11 8/39/12
f 11/31/13 14/30/4 13/33/11
f 11/31/13 4/34/8 12/32/14
f 14/18/4 3/19/3 18/13/15
f 11/31/13 12/32/14 3/29/3
f 7/6/7 15/4/16 4/2/8
f 7/41/7 11/31/13 15/44/16
f 11/31/13 8/39/12 15/44/16
f 13/25/11 14/18/4 17/22/17
f 18/13/15 3/19/3 20/16/18
f 3/29/3 12/32/14 20/35/18
f 12/1/14 4/2/8 21/3/19
f 15/44/16 8/39/12 16/43/20
f 8/39/12 13/33/11 17/42/17
f 18/13/15 20/16/18 19/14/21
f 20/57/18 12/58/14 21/59/19
f 4/2/8 15/4/16 22/5/22 21/3/19
f 15/4/16 16/7/20 22/5/22
f 8/39/12 17/42/17 16/43/20
f 17/22/17 14/18/4 23/15/23
f 14/18/4 18/13/15 23/15/23
f 18/13/15 19/14/21 23/15/23
f 17/22/17 23/15/23 25/21/24
f 20/57/18 21/59/19 24/60/25
f 16/63/20 17/64/17 25/65/24
f 21/3/19 22/5/22 26/8/26
f 22/5/22 16/7/20 27/9/27
f 25/21/24 23/15/23 28/17/28
f 23/15/23 19/14/21 28/17/28
f 21/3/19 26/8/26 30/11/29
f 16/63/20 25/65/24 27/66/27
f 19/14/21 20/16/18 29/20/30 28/17/28
f 20/57/18 24/60/25 29/62/30
f 24/60/25 21/59/19 30/61/29
f 26/8/26 22/5/22 31/10/31
f 22/5/22 27/9/27 31/10/31
f 25/65/24 32/67/32 27/66/27
f 25/21/24 28/17/28 32/24/32
f 28/17/28 29/20/30 33/23/33
f 29/62/30 24/60/25 30/61/29
f 32/24/32 28/17/28 33/23/33
f 31/45/31 27/48/27 34/46/34
f 27/48/27 32/50/32 34/46/34
f 26/8/26 31/10/31 36/12/35
f 31/45/31 34/46/34 36/47/35
f 32/50/32 35/51/36 34/46/34
f 32/24/32 33/23/33 35/26/36
f 33/53/33 29/54/30 36/47/35
f 30/55/29 26/56/26 36/47/35
f 29/54/30 30/55/29 36/47/35
f 34/46/34 35/51/36 38/52/37 37/49/38
f 35/51/36 33/53/33 36/47/35
f 1/27/1 14/30/4 11/31/13
f 2/28/2 1/27/1 11/31/13
f 3/29/3 2/28/2 11/31/13
f 5/37/5 4/34/8 11/31/13
f 6/40/6 5/37/5 11/31/13
f 7/41/7 6/40/6 11/31/13
f 9/38/9 8/39/12 11/31/13
f 10/36/10 9/38/9 11/31/13
f 13/33/11 10/36/10 11/31/13
f 34/46/34 37/49/38 36/47/35
f 37/49/38 38/52/37 36/47/35
f 38/52/37 35/51/36 36/47/35
