# This file uses centimeters as units for non-parametric coordinates.

g default
v 0.318543 2.355595 -0.283162
v 0.318543 0.029512 -0.283162
v -0.026246 0.029512 -0.410009
v -0.026246 2.474527 -0.410009
v 0.445390 2.007915 0.087656
v 0.445390 0.029512 0.087656
v 0.012307 0.029512 0.023074
v -0.255376 0.029512 -0.205154
v -0.255376 2.282454 -0.205154
v 0.318543 1.841893 0.264727
v 0.318543 0.029512 0.264727
v -0.420775 0.029512 -0.054934
v -0.420775 2.141608 -0.054934
v -0.021685 1.665244 0.453132
v -0.021685 0.029512 0.453132
v -0.259936 0.029512 0.332333
v -0.259936 1.778505 0.332333
v -0.538821 0.750771 0.501654
v -0.390547 0.070473 0.282080
v -0.308344 0.065565 0.352794
v -0.464199 0.780647 0.583595
v -0.516135 0.684081 0.360766
v -0.390024 0.105467 0.174012
v -0.277776 0.109004 0.238851
v -0.226271 0.091910 0.326595
v -0.369883 0.750817 0.539264
v -0.454074 0.656628 0.314475
v -0.338545 0.126570 0.143392
v -0.166803 0.111167 0.307089
v -0.301437 0.728881 0.506463
v -0.331935 0.632228 0.288204
v -0.227667 0.153833 0.133796
v -0.174010 0.147049 0.191051
v -0.285498 0.658568 0.356150
v 0.235048 1.357905 0.891220
v 0.097801 0.045642 0.371800
v 0.274306 0.031586 0.360674
v 0.418571 1.410944 0.906652
v 0.093940 1.224442 0.687091
v -0.022793 0.108323 0.245309
v 0.182644 0.107477 0.193164
v 0.341955 0.073544 0.236795
v 0.474887 1.344545 0.739883
v 0.110664 1.165303 0.555791
v 0.003726 0.142846 0.151082
v 0.390386 0.104248 0.146428
v 0.515007 1.295790 0.618064
v 0.220570 1.107408 0.379043
v 0.124055 0.184608 0.013779
v 0.251713 0.169014 0.019444
v 0.354910 1.155711 0.409999
v 1.318097 1.949427 0.209924
v 0.468798 0.030625 0.083027
v 0.464158 0.050887 -0.192306
v 1.356882 2.067798 -0.058921
v 0.989018 1.739416 0.382642
v 0.266664 0.107417 0.274712
v 0.201253 0.157493 -0.044709
v 0.279242 0.139503 -0.294650
v 1.101837 1.997971 -0.171743
v 0.785996 1.668066 0.334679
v 0.124259 0.173020 0.235807
v 0.144286 0.204080 -0.367874
v 0.915454 1.946363 -0.252651
v 0.519729 1.623839 0.140791
v -0.077510 0.274512 0.051555
v -0.059872 0.279899 -0.147945
v 0.578721 1.722656 -0.052530
v -0.651592 2.212868 -0.015112
v -0.007651 0.212087 0.022743
v -0.135516 0.166386 -0.217679
v -0.812381 2.269465 -0.257470
v -0.657606 1.885984 0.259369
v -0.109915 0.184260 0.291566
v -0.314165 0.113807 0.042299
v -0.353673 0.096194 -0.216555
v -0.977366 2.034063 -0.253220
v -0.761741 1.695554 0.298118
v -0.260011 0.136634 0.327614
v -0.512231 0.045203 -0.214440
v -1.096933 1.861923 -0.248813
v -0.983446 1.455329 0.238238
v -0.530618 0.048354 0.264859
v -0.603706 0.021338 0.080281
v -1.087888 1.525735 0.051817
vt 0.918263 0.810651
vt 0.918263 0.004395
vt 1.069381 0.004395
vt 1.069381 0.952341
vt 0.846101 0.742993
vt 0.846101 0.004395
vt 0.304048 0.865135
vt 0.304048 0.004395
vt 0.461870 0.004395
vt 0.461870 0.717160
vt 0.242829 0.922534
vt 0.242829 0.004395
vt 0.159345 1.000809
vt 0.159345 0.004395
vt 1.599982 2.002439
vt 1.523874 1.766637
vt 1.567915 1.752376
vt 1.657398 2.029617
vt 1.581117 1.991251
vt 1.511396 1.775237
vt 1.596733 1.750376
vt 1.690791 2.041793
vt 2.046073 2.272776
vt 2.127324 2.021039
vt 2.174613 2.035662
vt 2.107331 2.244121
vt 2.197946 2.038427
vt 2.135021 2.233387
vt 0.004395 2.142647
vt 0.226897 1.580518
vt 0.277381 1.597618
vt 0.072358 2.115587
vt 0.314208 1.610131
vt 0.122003 2.095718
vt 0.365958 1.636525
vt 0.206795 2.038632
vt 0.603426 2.139771
vt 0.438495 1.723090
vt 0.476895 1.709021
vt 0.656934 2.163872
vt 0.531396 2.116177
vt 0.382540 1.740110
vt 0.528444 1.683477
vt 0.740123 2.218262
vt 2.034025 1.652219
vt 2.085740 0.870251
vt 2.197946 0.878509
vt 2.143588 1.700458
vt 1.963638 1.566633
vt 2.007623 0.901546
vt 0.915146 1.641121
vt 0.876262 1.053156
vt 0.957564 1.050961
vt 0.993931 1.600850
vt 0.833592 1.732288
vt 0.786635 1.022257
vt 1.032652 1.009600
vt 1.072946 1.618874
vt 1.859572 0.838396
vt 1.844145 0.023020
vt 1.942124 0.004395
vt 1.958340 0.861461
vt 1.747713 0.705181
vt 1.734592 0.011680
vt 1.089994 0.754486
vt 1.104002 0.014121
vt 1.224109 0.004395
vt 1.212509 0.617480
vt 1.299330 0.015405
vt 1.288481 0.588788
vt 1.312884 0.686686
vt 1.297092 0.764292
vt 1.185233 0.897507
vt 1.086466 0.920572
vt 1.088198 0.824638
vt 0.867562 1.933283
vt 0.919256 1.792772
vt 1.044056 1.917572
vt 1.070375 1.741078
vt 0.951046 2.026660
vt 1.142536 1.792772
vt 1.012265 2.094066
vt 1.219317 1.931425
vt 1.170088 2.028519
vt 1.229775 2.160538
vt 1.200956 2.194039
vt 1.183339 2.148081
vt 1.156916 2.193825
vt 1.219097 2.127091
vt 1.144437 2.172846
vt 1.211148 2.102856
vt 1.140527 2.127660
vt 1.163859 2.105793
vt 1.340028 2.131764
vt 1.346523 2.193021
vt 1.327599 2.220711
vt 1.277823 2.210005
vt 1.252532 2.191140
vt 1.243286 2.133724
vt 1.273697 2.100331
vt 1.312134 2.118397
vt 1.501405 2.147636
vt 1.505939 2.219567
vt 1.433140 2.184991
vt 1.454390 2.268713
vt 1.450920 2.120067
vt 1.415990 2.257905
vt 1.414093 2.100331
vt 1.360035 2.208868
vt 1.362344 2.156844
vt 1.691048 2.168191
vt 1.625804 2.252984
vt 1.571056 2.265599
vt 1.526266 2.193569
vt 1.519451 2.140060
vt 1.576957 2.056872
vt 1.651747 2.050583
vt 1.674698 2.118546
vt 2.062642 1.821925
vt 2.064533 1.934132
vt 1.955501 1.882075
vt 1.982158 2.012249
vt 1.987284 1.780217
vt 1.924124 1.996394
vt 1.932285 1.750376
vt 1.841897 1.921306
vt 1.849085 1.840004
vt 1.495593 1.930271
vt 1.414039 2.067499
vt 1.335255 2.091540
vt 1.256240 1.983029
vt 1.236694 1.900291
vt 1.307081 1.766182
vt 1.416643 1.750376
vt 1.462621 1.854314
vt 1.810339 2.102692
vt 1.908318 2.050583
vt 1.916287 2.175497
vt 2.017871 2.092259
vt 1.810797 2.191597
vt 2.032562 2.153428
vt 1.811659 2.256214
vt 2.006987 2.263708
vt 1.931766 2.293493
vt 0.144906 0.052863
vt 0.144906 1.000809
vt 0.004395 1.000809
vt 0.004395 0.004395
vt 0.639610 0.671003
vt 0.639610 0.004395
vt 0.778263 0.004395
vt 0.778263 0.742993
vt 0.542516 0.717160
vt 0.542516 0.004395
vt 0.476969 0.865135
vt 0.829957 0.810651
vt 0.778263 0.952341
vt 0.637752 1.000809
vt 0.544375 0.922534
vt 1.704546 2.041793
vt 1.768062 1.750376
vt 1.801509 1.761112
vt 1.742983 2.029636
vt 1.825743 1.768960
vt 1.770876 2.020697
vt 1.754335 2.060527
vt 1.796827 2.255487
vt 1.751641 2.266598
vt 1.704560 2.050583
vt 0.332406 1.550113
vt 0.276473 1.015328
vt 0.348404 1.009600
vt 0.407197 1.571728
vt 0.850044 1.741078
vt 0.807988 2.143186
vt 0.755964 2.136831
vt 0.795296 1.760763
vt 1.950126 0.919637
vt 1.586315 1.741586
vt 1.510957 1.705473
vt 1.846188 0.948093
vt 1.455958 1.679155
vt 1.770232 0.969125
vt 0.690385 1.645609
vt 0.420709 1.036335
vt 0.478742 1.009600
vt 0.773123 1.674686
vt 1.442793 0.004395
vt 1.718635 0.861461
vt 1.629730 0.890066
vt 1.375557 0.100329
vt 1.565113 0.910846
vt 1.326830 0.170481
vt 1.176808 1.600644
vt 1.381278 0.965339
vt 1.442446 0.984748
vt 1.219247 1.678250
vt 1.086457 1.502745
vt 1.270998 0.929362
vn 0.345273 0.000000 -0.938502
vn 0.345273 0.000000 -0.938502
vn 0.345273 0.000000 -0.938502
vn 0.345273 0.000000 -0.938502
vn 0.946173 0.000000 -0.323661
vn 0.946173 0.000000 -0.323661
vn 0.946173 0.000000 -0.323661
vn 0.946173 0.000000 -0.323661
vn 0.000000 -1.000000 0.000000
vn 0.000000 -1.000000 0.000000
vn 0.000000 -1.000000 0.000000
vn -0.666513 0.000000 -0.745494
vn -0.666513 0.000000 -0.745494
vn -0.667921 0.000000 -0.744233
vn -0.668878 0.000000 -0.743372
vn 0.623357 0.000000 0.781938
vn 0.812935 0.000000 0.582354
vn 0.678870 0.000000 0.734259
vn 0.812935 0.000000 0.582354
vn 0.000000 -1.000000 0.000000
vn 0.000000 -1.000000 0.000000
vn -0.672321 0.000000 -0.740260
vn -0.672321 0.000000 -0.740260
vn 0.484443 0.000000 0.874823
vn 0.484443 0.000000 0.874823
vn 0.000000 -1.000000 0.000000
vn 0.000000 -1.000000 0.000000
vn -0.923518 0.000000 0.383554
vn -0.923519 0.000000 0.383554
vn -0.923518 0.000000 0.383554
vn -0.923519 0.000000 0.383554
vn -0.452218 0.000000 0.891907
vn -0.452218 0.000000 0.891907
vn -0.452218 0.000000 0.891907
vn -0.452218 0.000000 0.891907
vn 0.000000 -1.000000 0.000000
vn 0.000000 -1.000000 0.000000
vn -0.000000 0.729499 0.683982
vn 0.000000 0.729500 0.683981
vn -0.000000 0.729500 0.683981
vn 0.000000 0.729500 0.683980
vn 0.000000 0.729500 0.683980
vn 0.000000 0.729500 0.683981
vn -0.000000 0.729500 0.683980
vn -0.000000 0.729500 0.683981
vn -0.620658 -0.360081 0.696510
vn -0.620658 -0.360081 0.696510
vn -0.620657 -0.360081 0.696510
vn -0.620657 -0.360081 0.696510
vn -0.979148 -0.191829 -0.066862
vn -0.979148 -0.191829 -0.066862
vn -0.979148 -0.191829 -0.066862
vn -0.979148 -0.191829 -0.066862
vn 0.203095 -0.931825 -0.300757
vn 0.203095 -0.931825 -0.300757
vn 0.203095 -0.931825 -0.300757
vn 0.358933 -0.214927 0.908281
vn 0.358934 -0.214927 0.908280
vn 0.360589 -0.214394 0.907750
vn 0.361817 -0.213999 0.907355
vn -0.307246 0.230997 -0.923169
vn -0.549226 0.145875 -0.822843
vn -0.377873 0.208775 -0.902012
vn -0.549226 0.145875 -0.822843
vn 0.203095 -0.931825 -0.300757
vn 0.203095 -0.931825 -0.300757
vn 0.366024 -0.212641 0.905986
vn 0.366023 -0.212640 0.905986
vn -0.149599 0.274023 -0.950017
vn -0.149598 0.274023 -0.950017
vn 0.203095 -0.931825 -0.300757
vn 0.203095 -0.931825 -0.300757
vn 0.977366 0.211502 0.004705
vn 0.977366 0.211503 0.004704
vn 0.977366 0.211502 0.004705
vn 0.977366 0.211503 0.004704
vn 0.703295 0.352536 -0.617329
vn 0.703295 0.352536 -0.617329
vn 0.703294 0.352536 -0.617329
vn 0.703295 0.352536 -0.617329
vn 0.203095 -0.931825 -0.300757
vn 0.203095 -0.931825 -0.300757
vn 0.091899 0.905669 -0.413905
vn 0.091900 0.905670 -0.413905
vn 0.091900 0.905670 -0.413904
vn 0.091900 0.905670 -0.413904
vn 0.091900 0.905670 -0.413904
vn 0.091900 0.905670 -0.413904
vn 0.091900 0.905670 -0.413904
vn 0.091900 0.905670 -0.413905
vn 0.029015 -0.370505 0.928377
vn 0.029015 -0.370505 0.928377
vn 0.029015 -0.370505 0.928377
vn 0.029015 -0.370505 0.928377
vn -0.754158 -0.171984 0.633773
vn -0.754158 -0.171984 0.633773
vn -0.754158 -0.171984 0.633773
vn -0.754158 -0.171984 0.633773
vn -0.096791 -0.925445 -0.366310
vn -0.096791 -0.925445 -0.366310
vn -0.096791 -0.925445 -0.366310
vn 0.882934 -0.249715 0.397580
vn 0.882934 -0.249715 0.397580
vn 0.883690 -0.249245 0.396193
vn 0.884384 -0.248812 0.394914
vn -0.855886 0.265246 -0.443964
vn -0.961954 0.181456 -0.204252
vn -0.897326 0.240372 -0.370172
vn -0.961954 0.181456 -0.204252
vn -0.096791 -0.925445 -0.366310
vn -0.096791 -0.925445 -0.366310
vn 0.886489 -0.247486 0.391009
vn 0.886489 -0.247486 0.391009
vn -0.760152 0.306313 -0.573012
vn -0.760152 0.306313 -0.573011
vn -0.096791 -0.925445 -0.366310
vn -0.096791 -0.925445 -0.366310
vn 0.710213 0.193625 -0.676836
vn 0.710214 0.193625 -0.676835
vn 0.710213 0.193625 -0.676835
vn 0.710214 0.193625 -0.676835
vn 0.085098 0.358996 -0.929452
vn 0.085098 0.358996 -0.929452
vn 0.085098 0.358996 -0.929452
vn 0.085098 0.358996 -0.929452
vn -0.096791 -0.925445 -0.366310
vn -0.096791 -0.925445 -0.366310
vn -0.218419 0.879050 -0.423750
vn -0.218419 0.879049 -0.423752
vn -0.218419 0.879049 -0.423752
vn -0.218419 0.879049 -0.423753
vn -0.218419 0.879049 -0.423752
vn -0.218419 0.879049 -0.423752
vn -0.218419 0.879049 -0.423753
vn -0.218419 0.879049 -0.423752
vn 0.914602 -0.401846 -0.044986
vn 0.914602 -0.401846 -0.044986
vn 0.914602 -0.401845 -0.044987
vn 0.914602 -0.401846 -0.044987
vn 0.589447 -0.310227 0.745863
vn 0.589447 -0.310227 0.745863
vn 0.589447 -0.310227 0.745863
vn 0.589447 -0.310227 0.745863
vn -0.404006 -0.912762 -0.060364
vn -0.404006 -0.912762 -0.060364
vn -0.404006 -0.912762 -0.060364
vn 0.430959 -0.131713 -0.892707
vn 0.430959 -0.131713 -0.892707
vn 0.429589 -0.131056 -0.893464
vn 0.428402 -0.130488 -0.894117
vn -0.475419 0.153136 0.866329
vn -0.244337 0.044086 0.968688
vn -0.407368 0.120439 0.905288
vn -0.244337 0.044086 0.968688
vn -0.404006 -0.912762 -0.060364
vn -0.404007 -0.912762 -0.060364
vn 0.424655 -0.128694 -0.896162
vn 0.424655 -0.128694 -0.896162
vn -0.598000 0.213597 0.772511
vn -0.598000 0.213598 0.772510
vn -0.404006 -0.912762 -0.060364
vn -0.404007 -0.912762 -0.060364
vn -0.633793 0.326891 -0.701034
vn -0.633793 0.326891 -0.701034
vn -0.633793 0.326891 -0.701034
vn -0.633793 0.326891 -0.701034
vn -0.910510 0.407605 -0.069493
vn -0.910510 0.407605 -0.069493
vn -0.910510 0.407605 -0.069493
vn -0.910510 0.407605 -0.069493
vn -0.404006 -0.912762 -0.060364
vn -0.404006 -0.912762 -0.060364
vn -0.381062 0.865183 0.325961
vn -0.381062 0.865183 0.325960
vn -0.381062 0.865183 0.325960
vn -0.381062 0.865183 0.325960
vn -0.381062 0.865183 0.325960
vn -0.381062 0.865183 0.325960
vn -0.381062 0.865184 0.325959
vn -0.381062 0.865183 0.325960
vn 0.831700 0.258380 -0.491442
vn 0.831700 0.258380 -0.491442
vn 0.831700 0.258380 -0.491442
vn 0.831700 0.258380 -0.491442
vn 0.883697 0.291344 0.366330
vn 0.883697 0.291344 0.366330
vn 0.883697 0.291344 0.366330
vn 0.883697 0.291344 0.366330
vn 0.306319 -0.951759 0.018007
vn 0.306318 -0.951759 0.018008
vn 0.306318 -0.951759 0.018008
vn 0.000848 -0.018644 -0.999826
vn 0.000848 -0.018644 -0.999826
vn -0.000768 -0.019164 -0.999816
vn -0.002166 -0.019614 -0.999805
vn -0.054095 0.001482 0.998535
vn 0.207069 0.085084 0.974619
vn 0.026770 0.027522 0.999263
vn 0.207070 0.085084 0.974619
vn 0.306319 -0.951759 0.018008
vn 0.306318 -0.951759 0.018008
vn -0.006574 -0.021032 -0.999757
vn -0.006574 -0.021032 -0.999757
vn -0.210367 -0.049232 0.976382
vn -0.210367 -0.049232 0.976382
vn 0.306319 -0.951759 0.018008
vn 0.306318 -0.951759 0.018008
vn -0.904888 -0.297002 -0.304907
vn -0.904888 -0.297002 -0.304907
vn -0.904888 -0.297002 -0.304907
vn -0.904887 -0.297002 -0.304907
vn -0.879256 -0.275633 0.388503
vn -0.879256 -0.275633 0.388503
vn -0.879256 -0.275633 0.388503
vn -0.879256 -0.275633 0.388503
vn 0.306318 -0.951759 0.018008
vn 0.306318 -0.951759 0.018008
vn -0.673837 0.482372 0.559696
vn -0.673837 0.482372 0.559698
vn -0.673837 0.482371 0.559698
vn -0.673837 0.482371 0.559698
vn -0.673837 0.482372 0.559697
vn -0.673837 0.482372 0.559697
vn -0.673837 0.482372 0.559697
vn -0.673837 0.482371 0.559697
s 1
g pCylinder9
f 2/146/1 3/147/2 1/145/3
f 1/145/3 3/147/2 4/148/4
s 2
f 6/2/5 2/3/6 5/1/7
f 5/1/7 2/3/6 1/4/8
s 3
f 3/76/9 2/77/10 7/78/11
s 4
f 4/13/12 3/14/13 9/11/14
f 9/11/14 3/14/13 8/12/15
s 5
f 11/6/16 6/2/17 10/5/18
f 10/5/18 6/2/17 5/1/19
s 3
f 2/77/10 6/79/20 7/78/11
f 8/80/21 3/76/9 7/78/11
s 4
f 9/11/14 8/12/15 13/7/22
f 13/7/22 8/12/15 12/8/23
s 5
f 15/150/24 11/151/16 14/149/25
f 14/149/25 11/151/16 10/152/18
s 3
f 6/79/20 11/81/26 7/78/11
f 12/82/27 8/80/21 7/78/11
s 6
f 13/7/28 12/8/29 17/10/30
f 17/10/30 12/8/29 16/9/31
s 7
f 17/153/32 16/154/33 14/149/34
f 14/149/34 16/154/33 15/150/35
s 3
f 11/81/26 15/83/36 7/78/11
f 16/84/37 12/82/27 7/78/11
f 15/83/36 16/84/37 7/78/11
s 8
f 4/158/38 9/159/39 1/157/40
f 1/157/40 9/159/39 5/156/41
f 5/156/41 9/159/39 10/152/42
f 9/159/39 13/155/43 10/152/42
f 13/155/43 17/153/44 10/152/42
f 17/153/44 14/149/45 10/152/42
s 9
f 19/17/46 20/21/47 18/18/48
f 18/18/48 20/21/47 21/22/49
s 10
f 23/16/50 19/17/51 22/15/52
f 22/15/52 19/17/51 18/18/53
s 11
f 20/85/54 19/86/55 24/87/56
s 12
f 21/160/57 20/161/58 26/163/59
f 26/163/59 20/161/58 25/162/60
s 13
f 28/20/61 23/16/62 27/19/63
f 27/19/63 23/16/62 22/15/64
s 11
f 19/86/55 23/88/65 24/87/56
f 25/89/66 20/85/54 24/87/56
s 12
f 26/163/59 25/162/60 30/165/67
f 30/165/67 25/162/60 29/164/68
s 13
f 32/167/69 28/168/61 31/166/70
f 31/166/70 28/168/61 27/169/63
s 11
f 23/88/65 28/90/71 24/87/56
f 29/91/72 25/89/66 24/87/56
s 14
f 30/23/73 29/24/74 34/26/75
f 34/26/75 29/24/74 33/25/76
s 15
f 34/26/77 33/25/78 31/28/79
f 31/28/79 33/25/78 32/27/80
s 11
f 28/90/71 32/92/81 24/87/56
f 33/93/82 29/91/72 24/87/56
f 32/92/81 33/93/82 24/87/56
s 16
f 21/100/83 26/101/84 18/99/85
f 18/99/85 26/101/84 22/98/86
f 22/98/86 26/101/84 27/97/87
f 26/101/84 30/94/88 27/97/87
f 30/94/88 34/95/89 27/97/87
f 34/95/89 31/96/90 27/97/87
s 17
f 36/171/91 37/172/92 35/170/93
f 35/170/93 37/172/92 38/173/94
s 18
f 40/39/95 36/43/96 39/40/97
f 39/40/97 36/43/96 35/44/98
s 19
f 37/102/99 36/103/100 41/104/101
s 20
f 38/29/102 37/30/103 43/32/104
f 43/32/104 37/30/103 42/31/105
s 21
f 45/38/106 40/39/107 44/37/108
f 44/37/108 40/39/107 39/40/109
s 19
f 36/103/100 40/105/110 41/104/101
f 42/106/111 37/102/99 41/104/101
s 20
f 43/32/104 42/31/105 47/34/112
f 47/34/112 42/31/105 46/33/113
s 21
f 49/42/114 45/38/106 48/41/115
f 48/41/115 45/38/106 44/37/108
s 19
f 40/105/110 45/107/116 41/104/101
f 46/108/117 42/106/111 41/104/101
s 22
f 47/34/118 46/33/119 51/36/120
f 51/36/120 46/33/119 50/35/121
s 23
f 51/174/122 50/175/123 48/177/124
f 48/177/124 50/175/123 49/176/125
s 19
f 45/107/116 49/109/126 41/104/101
f 50/110/127 46/108/117 41/104/101
f 49/109/126 50/110/127 41/104/101
s 24
f 38/117/128 43/118/129 35/116/130
f 35/116/130 43/118/129 39/115/131
f 43/118/129 47/111/132 39/115/131
f 47/111/132 51/112/133 39/115/131
f 39/115/131 51/112/133 44/114/134
f 51/112/133 48/113/135 44/114/134
s 25
f 53/46/136 54/47/137 52/45/138
f 52/45/138 54/47/137 55/48/139
s 26
f 57/50/140 53/46/141 56/49/142
f 56/49/142 53/46/141 52/45/143
s 27
f 54/119/144 53/120/145 58/121/146
s 28
f 55/178/147 54/179/148 60/181/149
f 60/181/149 54/179/148 59/180/150
s 29
f 62/185/151 57/186/152 61/184/153
f 61/184/153 57/186/152 56/187/154
s 27
f 53/120/145 57/122/155 58/121/146
f 59/123/156 54/119/144 58/121/146
s 28
f 60/181/149 59/180/150 64/183/157
f 64/183/157 59/180/150 63/182/158
s 29
f 66/53/159 62/57/151 65/54/160
f 65/54/160 62/57/151 61/58/153
s 27
f 57/122/155 62/124/161 58/121/146
f 63/125/162 59/123/156 58/121/146
s 30
f 64/55/163 63/56/164 68/51/165
f 68/51/165 63/56/164 67/52/166
s 31
f 68/51/167 67/52/168 65/54/169
f 65/54/169 67/52/168 66/53/170
s 27
f 62/124/161 66/126/171 58/121/146
f 67/127/172 63/125/162 58/121/146
f 66/126/171 67/127/172 58/121/146
s 32
f 55/134/173 60/135/174 52/133/175
f 52/133/175 60/135/174 56/132/176
f 60/135/174 64/128/177 56/132/176
f 64/128/177 68/129/178 56/132/176
f 56/132/176 68/129/178 61/131/179
f 68/129/178 65/130/180 61/131/179
s 33
f 70/60/181 71/61/182 69/59/183
f 69/59/183 71/61/182 72/62/184
s 34
f 74/64/185 70/60/186 73/63/187
f 73/63/187 70/60/186 69/59/188
s 35
f 71/136/189 70/137/190 75/138/191
s 36
f 72/188/192 71/189/193 77/191/194
f 77/191/194 71/189/193 76/190/195
s 37
f 79/195/196 74/196/197 78/194/198
f 78/194/198 74/196/197 73/197/199
s 35
f 70/137/190 74/139/200 75/138/191
f 76/140/201 71/136/189 75/138/191
s 36
f 77/191/194 76/190/195 81/193/202
f 81/193/202 76/190/195 80/192/203
s 37
f 83/199/204 79/195/196 82/198/205
f 82/198/205 79/195/196 78/194/198
s 35
f 74/139/200 79/141/206 75/138/191
f 80/142/207 76/140/201 75/138/191
s 38
f 81/65/208 80/66/209 85/68/210
f 85/68/210 80/66/209 84/67/211
s 39
f 85/68/212 84/67/213 82/70/214
f 82/70/214 84/67/213 83/69/215
s 35
f 79/141/206 83/143/216 75/138/191
f 84/144/217 80/142/207 75/138/191
f 83/143/216 84/144/217 75/138/191
s 40
f 72/74/218 77/75/219 69/73/220
f 69/73/220 77/75/219 73/72/221
f 77/75/219 81/65/222 73/72/221
f 81/65/222 85/68/223 73/72/221
f 73/72/221 85/68/223 78/71/224
f 85/68/223 82/70/225 78/71/224
